<?xml version="1.0" encoding="utf-8"?>
<svg xmlns="http://www.w3.org/2000/svg" xmlns:xlink="http://www.w3.org/1999/xlink" style="margin: auto; background: rgb(33, 37, 41); display: block; z-index: 1; position: relative; shape-rendering: auto;" preserveAspectRatio="xMidYMid" viewBox="0 0 1536 707">
<g transform="translate(768,353.5) scale(1,1) translate(-768,-353.5)"><g transform="translate(-100 611.3282200681825) rotate(0)">
  <animateTransform attributeName="transform" type="translate" keyTimes="0;1" values="-100 611.3282200681825;1536 611.3282200681825" dur="333.3333333333333s" repeatCount="indefinite" begin="-63.31549447090149s"></animateTransform>
  <path d="M84.717,33.597c0.791-2.503,1.186-5.138,1.186-7.773C85.903,11.594,74.308,0,60.079,0 c-9.881,0-18.445,5.534-22.793,13.702c-1.581-0.527-3.426-0.791-5.138-0.791c-9.486,0-17.128,7.642-17.128,17.128 c0,1.186,0.132,2.372,0.395,3.426C6.719,34.783,0,42.424,0,51.515C0,61.66,8.169,69.829,18.314,69.829h63.373 C91.831,69.829,100,61.66,100,51.515C99.868,42.556,93.281,35.046,84.717,33.597z" fill="#bddeff" transform="scale(0.4875)"></path>
</g><g transform="translate(-100 386.81571240020963) rotate(0)">
  <animateTransform attributeName="transform" type="translate" keyTimes="0;1" values="-100 386.81571240020963;1536 386.81571240020963" dur="333.3333333333333s" repeatCount="indefinite" begin="-233.9906977786228s"></animateTransform>
  <path d="M84.717,33.597c0.791-2.503,1.186-5.138,1.186-7.773C85.903,11.594,74.308,0,60.079,0 c-9.881,0-18.445,5.534-22.793,13.702c-1.581-0.527-3.426-0.791-5.138-0.791c-9.486,0-17.128,7.642-17.128,17.128 c0,1.186,0.132,2.372,0.395,3.426C6.719,34.783,0,42.424,0,51.515C0,61.66,8.169,69.829,18.314,69.829h63.373 C91.831,69.829,100,61.66,100,51.515C99.868,42.556,93.281,35.046,84.717,33.597z" fill="#bddeff" transform="scale(0.4875)"></path>
</g><g transform="translate(-100 135.18825287491828) rotate(0)">
  <animateTransform attributeName="transform" type="translate" keyTimes="0;1" values="-100 135.18825287491828;1536 135.18825287491828" dur="333.3333333333333s" repeatCount="indefinite" begin="-166.33519206833506s"></animateTransform>
  <path d="M84.717,33.597c0.791-2.503,1.186-5.138,1.186-7.773C85.903,11.594,74.308,0,60.079,0 c-9.881,0-18.445,5.534-22.793,13.702c-1.581-0.527-3.426-0.791-5.138-0.791c-9.486,0-17.128,7.642-17.128,17.128 c0,1.186,0.132,2.372,0.395,3.426C6.719,34.783,0,42.424,0,51.515C0,61.66,8.169,69.829,18.314,69.829h63.373 C91.831,69.829,100,61.66,100,51.515C99.868,42.556,93.281,35.046,84.717,33.597z" fill="#bddeff" transform="scale(0.4875)"></path>
</g><g transform="translate(-100 453.4244178552558) rotate(0)">
  <animateTransform attributeName="transform" type="translate" keyTimes="0;1" values="-100 453.4244178552558;1536 453.4244178552558" dur="333.3333333333333s" repeatCount="indefinite" begin="-130.0584583624657s"></animateTransform>
  <path d="M84.717,33.597c0.791-2.503,1.186-5.138,1.186-7.773C85.903,11.594,74.308,0,60.079,0 c-9.881,0-18.445,5.534-22.793,13.702c-1.581-0.527-3.426-0.791-5.138-0.791c-9.486,0-17.128,7.642-17.128,17.128 c0,1.186,0.132,2.372,0.395,3.426C6.719,34.783,0,42.424,0,51.515C0,61.66,8.169,69.829,18.314,69.829h63.373 C91.831,69.829,100,61.66,100,51.515C99.868,42.556,93.281,35.046,84.717,33.597z" fill="#bddeff" transform="scale(0.4875)"></path>
</g><g transform="translate(-100 313.00376322039995) rotate(0)">
  <animateTransform attributeName="transform" type="translate" keyTimes="0;1" values="-100 313.00376322039995;1536 313.00376322039995" dur="333.3333333333333s" repeatCount="indefinite" begin="-11.413810565616522s"></animateTransform>
  <path d="M84.717,33.597c0.791-2.503,1.186-5.138,1.186-7.773C85.903,11.594,74.308,0,60.079,0 c-9.881,0-18.445,5.534-22.793,13.702c-1.581-0.527-3.426-0.791-5.138-0.791c-9.486,0-17.128,7.642-17.128,17.128 c0,1.186,0.132,2.372,0.395,3.426C6.719,34.783,0,42.424,0,51.515C0,61.66,8.169,69.829,18.314,69.829h63.373 C91.831,69.829,100,61.66,100,51.515C99.868,42.556,93.281,35.046,84.717,33.597z" fill="#bddeff" transform="scale(0.4875)"></path>
</g><g transform="translate(-100 498.239482864586) rotate(0)">
  <animateTransform attributeName="transform" type="translate" keyTimes="0;1" values="-100 498.239482864586;1536 498.239482864586" dur="333.3333333333333s" repeatCount="indefinite" begin="-58.69634687035363s"></animateTransform>
  <path d="M84.717,33.597c0.791-2.503,1.186-5.138,1.186-7.773C85.903,11.594,74.308,0,60.079,0 c-9.881,0-18.445,5.534-22.793,13.702c-1.581-0.527-3.426-0.791-5.138-0.791c-9.486,0-17.128,7.642-17.128,17.128 c0,1.186,0.132,2.372,0.395,3.426C6.719,34.783,0,42.424,0,51.515C0,61.66,8.169,69.829,18.314,69.829h63.373 C91.831,69.829,100,61.66,100,51.515C99.868,42.556,93.281,35.046,84.717,33.597z" fill="#bddeff" transform="scale(0.4875)"></path>
</g><g transform="translate(-100 589.34734995042) rotate(0)">
  <animateTransform attributeName="transform" type="translate" keyTimes="0;1" values="-100 589.34734995042;1536 589.34734995042" dur="333.3333333333333s" repeatCount="indefinite" begin="-91.99088226914205s"></animateTransform>
  <path d="M84.717,33.597c0.791-2.503,1.186-5.138,1.186-7.773C85.903,11.594,74.308,0,60.079,0 c-9.881,0-18.445,5.534-22.793,13.702c-1.581-0.527-3.426-0.791-5.138-0.791c-9.486,0-17.128,7.642-17.128,17.128 c0,1.186,0.132,2.372,0.395,3.426C6.719,34.783,0,42.424,0,51.515C0,61.66,8.169,69.829,18.314,69.829h63.373 C91.831,69.829,100,61.66,100,51.515C99.868,42.556,93.281,35.046,84.717,33.597z" fill="#bddeff" transform="scale(0.4875)"></path>
</g><g transform="translate(-100 492.3052900066089) rotate(0)">
  <animateTransform attributeName="transform" type="translate" keyTimes="0;1" values="-100 492.3052900066089;1536 492.3052900066089" dur="333.3333333333333s" repeatCount="indefinite" begin="-280.6082878044406s"></animateTransform>
  <path d="M84.717,33.597c0.791-2.503,1.186-5.138,1.186-7.773C85.903,11.594,74.308,0,60.079,0 c-9.881,0-18.445,5.534-22.793,13.702c-1.581-0.527-3.426-0.791-5.138-0.791c-9.486,0-17.128,7.642-17.128,17.128 c0,1.186,0.132,2.372,0.395,3.426C6.719,34.783,0,42.424,0,51.515C0,61.66,8.169,69.829,18.314,69.829h63.373 C91.831,69.829,100,61.66,100,51.515C99.868,42.556,93.281,35.046,84.717,33.597z" fill="#bddeff" transform="scale(0.4875)"></path>
</g><g transform="translate(-100 95.86953923751888) rotate(0)">
  <animateTransform attributeName="transform" type="translate" keyTimes="0;1" values="-100 95.86953923751888;1536 95.86953923751888" dur="333.3333333333333s" repeatCount="indefinite" begin="-93.63036960519159s"></animateTransform>
  <path d="M84.717,33.597c0.791-2.503,1.186-5.138,1.186-7.773C85.903,11.594,74.308,0,60.079,0 c-9.881,0-18.445,5.534-22.793,13.702c-1.581-0.527-3.426-0.791-5.138-0.791c-9.486,0-17.128,7.642-17.128,17.128 c0,1.186,0.132,2.372,0.395,3.426C6.719,34.783,0,42.424,0,51.515C0,61.66,8.169,69.829,18.314,69.829h63.373 C91.831,69.829,100,61.66,100,51.515C99.868,42.556,93.281,35.046,84.717,33.597z" fill="#bddeff" transform="scale(0.4875)"></path>
</g><g transform="translate(-100 560.6054719830746) rotate(0)">
  <animateTransform attributeName="transform" type="translate" keyTimes="0;1" values="-100 560.6054719830746;1536 560.6054719830746" dur="333.3333333333333s" repeatCount="indefinite" begin="-225.36234945393738s"></animateTransform>
  <path d="M84.717,33.597c0.791-2.503,1.186-5.138,1.186-7.773C85.903,11.594,74.308,0,60.079,0 c-9.881,0-18.445,5.534-22.793,13.702c-1.581-0.527-3.426-0.791-5.138-0.791c-9.486,0-17.128,7.642-17.128,17.128 c0,1.186,0.132,2.372,0.395,3.426C6.719,34.783,0,42.424,0,51.515C0,61.66,8.169,69.829,18.314,69.829h63.373 C91.831,69.829,100,61.66,100,51.515C99.868,42.556,93.281,35.046,84.717,33.597z" fill="#bddeff" transform="scale(0.4875)"></path>
</g><g transform="translate(-100 246.5593985709579) rotate(0)">
  <animateTransform attributeName="transform" type="translate" keyTimes="0;1" values="-100 246.5593985709579;1536 246.5593985709579" dur="333.3333333333333s" repeatCount="indefinite" begin="-208.04005736008193s"></animateTransform>
  <path d="M84.717,33.597c0.791-2.503,1.186-5.138,1.186-7.773C85.903,11.594,74.308,0,60.079,0 c-9.881,0-18.445,5.534-22.793,13.702c-1.581-0.527-3.426-0.791-5.138-0.791c-9.486,0-17.128,7.642-17.128,17.128 c0,1.186,0.132,2.372,0.395,3.426C6.719,34.783,0,42.424,0,51.515C0,61.66,8.169,69.829,18.314,69.829h63.373 C91.831,69.829,100,61.66,100,51.515C99.868,42.556,93.281,35.046,84.717,33.597z" fill="#bddeff" transform="scale(0.4875)"></path>
</g><g transform="translate(-100 589.012653179711) rotate(0)">
  <animateTransform attributeName="transform" type="translate" keyTimes="0;1" values="-100 589.012653179711;1536 589.012653179711" dur="166.66666666666666s" repeatCount="indefinite" begin="-32.62422400997737s"></animateTransform>
  <path d="M84.717,33.597c0.791-2.503,1.186-5.138,1.186-7.773C85.903,11.594,74.308,0,60.079,0 c-9.881,0-18.445,5.534-22.793,13.702c-1.581-0.527-3.426-0.791-5.138-0.791c-9.486,0-17.128,7.642-17.128,17.128 c0,1.186,0.132,2.372,0.395,3.426C6.719,34.783,0,42.424,0,51.515C0,61.66,8.169,69.829,18.314,69.829h63.373 C91.831,69.829,100,61.66,100,51.515C99.868,42.556,93.281,35.046,84.717,33.597z" fill="rgba(255, 255, 255, 0.8)" transform="scale(0.525)"></path>
</g><g transform="translate(-100 687.0464014074516) rotate(0)">
  <animateTransform attributeName="transform" type="translate" keyTimes="0;1" values="-100 687.0464014074516;1536 687.0464014074516" dur="166.66666666666666s" repeatCount="indefinite" begin="-89.17278203654081s"></animateTransform>
  <path d="M84.717,33.597c0.791-2.503,1.186-5.138,1.186-7.773C85.903,11.594,74.308,0,60.079,0 c-9.881,0-18.445,5.534-22.793,13.702c-1.581-0.527-3.426-0.791-5.138-0.791c-9.486,0-17.128,7.642-17.128,17.128 c0,1.186,0.132,2.372,0.395,3.426C6.719,34.783,0,42.424,0,51.515C0,61.66,8.169,69.829,18.314,69.829h63.373 C91.831,69.829,100,61.66,100,51.515C99.868,42.556,93.281,35.046,84.717,33.597z" fill="rgba(255, 255, 255, 0.8)" transform="scale(0.525)"></path>
</g><g transform="translate(-100 208.25818018520593) rotate(0)">
  <animateTransform attributeName="transform" type="translate" keyTimes="0;1" values="-100 208.25818018520593;1536 208.25818018520593" dur="166.66666666666666s" repeatCount="indefinite" begin="-238.36475039590556s"></animateTransform>
  <path d="M84.717,33.597c0.791-2.503,1.186-5.138,1.186-7.773C85.903,11.594,74.308,0,60.079,0 c-9.881,0-18.445,5.534-22.793,13.702c-1.581-0.527-3.426-0.791-5.138-0.791c-9.486,0-17.128,7.642-17.128,17.128 c0,1.186,0.132,2.372,0.395,3.426C6.719,34.783,0,42.424,0,51.515C0,61.66,8.169,69.829,18.314,69.829h63.373 C91.831,69.829,100,61.66,100,51.515C99.868,42.556,93.281,35.046,84.717,33.597z" fill="rgba(255, 255, 255, 0.8)" transform="scale(0.525)"></path>
</g><g transform="translate(-100 514.6779378949886) rotate(0)">
  <animateTransform attributeName="transform" type="translate" keyTimes="0;1" values="-100 514.6779378949886;1536 514.6779378949886" dur="166.66666666666666s" repeatCount="indefinite" begin="-60.35912140613697s"></animateTransform>
  <path d="M84.717,33.597c0.791-2.503,1.186-5.138,1.186-7.773C85.903,11.594,74.308,0,60.079,0 c-9.881,0-18.445,5.534-22.793,13.702c-1.581-0.527-3.426-0.791-5.138-0.791c-9.486,0-17.128,7.642-17.128,17.128 c0,1.186,0.132,2.372,0.395,3.426C6.719,34.783,0,42.424,0,51.515C0,61.66,8.169,69.829,18.314,69.829h63.373 C91.831,69.829,100,61.66,100,51.515C99.868,42.556,93.281,35.046,84.717,33.597z" fill="rgba(255, 255, 255, 0.8)" transform="scale(0.525)"></path>
</g><g transform="translate(-100 505.49475533239377) rotate(0)">
  <animateTransform attributeName="transform" type="translate" keyTimes="0;1" values="-100 505.49475533239377;1536 505.49475533239377" dur="166.66666666666666s" repeatCount="indefinite" begin="-44.12347873106167s"></animateTransform>
  <path d="M84.717,33.597c0.791-2.503,1.186-5.138,1.186-7.773C85.903,11.594,74.308,0,60.079,0 c-9.881,0-18.445,5.534-22.793,13.702c-1.581-0.527-3.426-0.791-5.138-0.791c-9.486,0-17.128,7.642-17.128,17.128 c0,1.186,0.132,2.372,0.395,3.426C6.719,34.783,0,42.424,0,51.515C0,61.66,8.169,69.829,18.314,69.829h63.373 C91.831,69.829,100,61.66,100,51.515C99.868,42.556,93.281,35.046,84.717,33.597z" fill="rgba(255, 255, 255, 0.8)" transform="scale(0.525)"></path>
</g><g transform="translate(-100 368.82541445303525) rotate(0)">
  <animateTransform attributeName="transform" type="translate" keyTimes="0;1" values="-100 368.82541445303525;1536 368.82541445303525" dur="166.66666666666666s" repeatCount="indefinite" begin="-173.90397654888602s"></animateTransform>
  <path d="M84.717,33.597c0.791-2.503,1.186-5.138,1.186-7.773C85.903,11.594,74.308,0,60.079,0 c-9.881,0-18.445,5.534-22.793,13.702c-1.581-0.527-3.426-0.791-5.138-0.791c-9.486,0-17.128,7.642-17.128,17.128 c0,1.186,0.132,2.372,0.395,3.426C6.719,34.783,0,42.424,0,51.515C0,61.66,8.169,69.829,18.314,69.829h63.373 C91.831,69.829,100,61.66,100,51.515C99.868,42.556,93.281,35.046,84.717,33.597z" fill="rgba(255, 255, 255, 0.8)" transform="scale(0.525)"></path>
</g><g transform="translate(-100 558.7195372254544) rotate(0)">
  <animateTransform attributeName="transform" type="translate" keyTimes="0;1" values="-100 558.7195372254544;1536 558.7195372254544" dur="166.66666666666666s" repeatCount="indefinite" begin="-214.33654181296833s"></animateTransform>
  <path d="M84.717,33.597c0.791-2.503,1.186-5.138,1.186-7.773C85.903,11.594,74.308,0,60.079,0 c-9.881,0-18.445,5.534-22.793,13.702c-1.581-0.527-3.426-0.791-5.138-0.791c-9.486,0-17.128,7.642-17.128,17.128 c0,1.186,0.132,2.372,0.395,3.426C6.719,34.783,0,42.424,0,51.515C0,61.66,8.169,69.829,18.314,69.829h63.373 C91.831,69.829,100,61.66,100,51.515C99.868,42.556,93.281,35.046,84.717,33.597z" fill="rgba(255, 255, 255, 0.8)" transform="scale(0.525)"></path>
</g><g transform="translate(-100 535.9971008154971) rotate(0)">
  <animateTransform attributeName="transform" type="translate" keyTimes="0;1" values="-100 535.9971008154971;1536 535.9971008154971" dur="166.66666666666666s" repeatCount="indefinite" begin="-233.33953874594656s"></animateTransform>
  <path d="M84.717,33.597c0.791-2.503,1.186-5.138,1.186-7.773C85.903,11.594,74.308,0,60.079,0 c-9.881,0-18.445,5.534-22.793,13.702c-1.581-0.527-3.426-0.791-5.138-0.791c-9.486,0-17.128,7.642-17.128,17.128 c0,1.186,0.132,2.372,0.395,3.426C6.719,34.783,0,42.424,0,51.515C0,61.66,8.169,69.829,18.314,69.829h63.373 C91.831,69.829,100,61.66,100,51.515C99.868,42.556,93.281,35.046,84.717,33.597z" fill="rgba(255, 255, 255, 0.8)" transform="scale(0.525)"></path>
</g><g transform="translate(-100 171.78562927713185) rotate(0)">
  <animateTransform attributeName="transform" type="translate" keyTimes="0;1" values="-100 171.78562927713185;1536 171.78562927713185" dur="166.66666666666666s" repeatCount="indefinite" begin="-121.20947333954707s"></animateTransform>
  <path d="M84.717,33.597c0.791-2.503,1.186-5.138,1.186-7.773C85.903,11.594,74.308,0,60.079,0 c-9.881,0-18.445,5.534-22.793,13.702c-1.581-0.527-3.426-0.791-5.138-0.791c-9.486,0-17.128,7.642-17.128,17.128 c0,1.186,0.132,2.372,0.395,3.426C6.719,34.783,0,42.424,0,51.515C0,61.66,8.169,69.829,18.314,69.829h63.373 C91.831,69.829,100,61.66,100,51.515C99.868,42.556,93.281,35.046,84.717,33.597z" fill="rgba(255, 255, 255, 0.8)" transform="scale(0.525)"></path>
</g><g transform="translate(-100 357.2827333374279) rotate(0)">
  <animateTransform attributeName="transform" type="translate" keyTimes="0;1" values="-100 357.2827333374279;1536 357.2827333374279" dur="166.66666666666666s" repeatCount="indefinite" begin="-269.5275976851793s"></animateTransform>
  <path d="M84.717,33.597c0.791-2.503,1.186-5.138,1.186-7.773C85.903,11.594,74.308,0,60.079,0 c-9.881,0-18.445,5.534-22.793,13.702c-1.581-0.527-3.426-0.791-5.138-0.791c-9.486,0-17.128,7.642-17.128,17.128 c0,1.186,0.132,2.372,0.395,3.426C6.719,34.783,0,42.424,0,51.515C0,61.66,8.169,69.829,18.314,69.829h63.373 C91.831,69.829,100,61.66,100,51.515C99.868,42.556,93.281,35.046,84.717,33.597z" fill="rgba(255, 255, 255, 0.8)" transform="scale(0.525)"></path>
</g><g transform="translate(-100 129.1377885574004) rotate(0)">
  <animateTransform attributeName="transform" type="translate" keyTimes="0;1" values="-100 129.1377885574004;1536 129.1377885574004" dur="166.66666666666666s" repeatCount="indefinite" begin="-316.8026268757343s"></animateTransform>
  <path d="M84.717,33.597c0.791-2.503,1.186-5.138,1.186-7.773C85.903,11.594,74.308,0,60.079,0 c-9.881,0-18.445,5.534-22.793,13.702c-1.581-0.527-3.426-0.791-5.138-0.791c-9.486,0-17.128,7.642-17.128,17.128 c0,1.186,0.132,2.372,0.395,3.426C6.719,34.783,0,42.424,0,51.515C0,61.66,8.169,69.829,18.314,69.829h63.373 C91.831,69.829,100,61.66,100,51.515C99.868,42.556,93.281,35.046,84.717,33.597z" fill="rgba(255, 255, 255, 0.8)" transform="scale(0.525)"></path>
</g><g transform="translate(-100 483.43988662789627) rotate(0)">
  <animateTransform attributeName="transform" type="translate" keyTimes="0;1" values="-100 483.43988662789627;1536 483.43988662789627" dur="111.1111111111111s" repeatCount="indefinite" begin="-23.516090071803365s"></animateTransform>
  <path d="M84.717,33.597c0.791-2.503,1.186-5.138,1.186-7.773C85.903,11.594,74.308,0,60.079,0 c-9.881,0-18.445,5.534-22.793,13.702c-1.581-0.527-3.426-0.791-5.138-0.791c-9.486,0-17.128,7.642-17.128,17.128 c0,1.186,0.132,2.372,0.395,3.426C6.719,34.783,0,42.424,0,51.515C0,61.66,8.169,69.829,18.314,69.829h63.373 C91.831,69.829,100,61.66,100,51.515C99.868,42.556,93.281,35.046,84.717,33.597z" fill="rgba(255, 255, 255, 0.5)" transform="scale(0.5625)"></path>
</g><g transform="translate(-100 511.3444775949775) rotate(0)">
  <animateTransform attributeName="transform" type="translate" keyTimes="0;1" values="-100 511.3444775949775;1536 511.3444775949775" dur="111.1111111111111s" repeatCount="indefinite" begin="-153.2560264484873s"></animateTransform>
  <path d="M84.717,33.597c0.791-2.503,1.186-5.138,1.186-7.773C85.903,11.594,74.308,0,60.079,0 c-9.881,0-18.445,5.534-22.793,13.702c-1.581-0.527-3.426-0.791-5.138-0.791c-9.486,0-17.128,7.642-17.128,17.128 c0,1.186,0.132,2.372,0.395,3.426C6.719,34.783,0,42.424,0,51.515C0,61.66,8.169,69.829,18.314,69.829h63.373 C91.831,69.829,100,61.66,100,51.515C99.868,42.556,93.281,35.046,84.717,33.597z" fill="rgba(255, 255, 255, 0.5)" transform="scale(0.5625)"></path>
</g><g transform="translate(-100 611.7617759158803) rotate(0)">
  <animateTransform attributeName="transform" type="translate" keyTimes="0;1" values="-100 611.7617759158803;1536 611.7617759158803" dur="111.1111111111111s" repeatCount="indefinite" begin="-41.56891561668429s"></animateTransform>
  <path d="M84.717,33.597c0.791-2.503,1.186-5.138,1.186-7.773C85.903,11.594,74.308,0,60.079,0 c-9.881,0-18.445,5.534-22.793,13.702c-1.581-0.527-3.426-0.791-5.138-0.791c-9.486,0-17.128,7.642-17.128,17.128 c0,1.186,0.132,2.372,0.395,3.426C6.719,34.783,0,42.424,0,51.515C0,61.66,8.169,69.829,18.314,69.829h63.373 C91.831,69.829,100,61.66,100,51.515C99.868,42.556,93.281,35.046,84.717,33.597z" fill="rgba(255, 255, 255, 0.5)" transform="scale(0.5625)"></path>
</g><g transform="translate(-100 623.1824649215987) rotate(0)">
  <animateTransform attributeName="transform" type="translate" keyTimes="0;1" values="-100 623.1824649215987;1536 623.1824649215987" dur="111.1111111111111s" repeatCount="indefinite" begin="-325.23066899571484s"></animateTransform>
  <path d="M84.717,33.597c0.791-2.503,1.186-5.138,1.186-7.773C85.903,11.594,74.308,0,60.079,0 c-9.881,0-18.445,5.534-22.793,13.702c-1.581-0.527-3.426-0.791-5.138-0.791c-9.486,0-17.128,7.642-17.128,17.128 c0,1.186,0.132,2.372,0.395,3.426C6.719,34.783,0,42.424,0,51.515C0,61.66,8.169,69.829,18.314,69.829h63.373 C91.831,69.829,100,61.66,100,51.515C99.868,42.556,93.281,35.046,84.717,33.597z" fill="rgba(255, 255, 255, 0.5)" transform="scale(0.5625)"></path>
</g><g transform="translate(-100 409.4470438068647) rotate(0)">
  <animateTransform attributeName="transform" type="translate" keyTimes="0;1" values="-100 409.4470438068647;1536 409.4470438068647" dur="111.1111111111111s" repeatCount="indefinite" begin="-227.67898954880744s"></animateTransform>
  <path d="M84.717,33.597c0.791-2.503,1.186-5.138,1.186-7.773C85.903,11.594,74.308,0,60.079,0 c-9.881,0-18.445,5.534-22.793,13.702c-1.581-0.527-3.426-0.791-5.138-0.791c-9.486,0-17.128,7.642-17.128,17.128 c0,1.186,0.132,2.372,0.395,3.426C6.719,34.783,0,42.424,0,51.515C0,61.66,8.169,69.829,18.314,69.829h63.373 C91.831,69.829,100,61.66,100,51.515C99.868,42.556,93.281,35.046,84.717,33.597z" fill="rgba(255, 255, 255, 0.5)" transform="scale(0.5625)"></path>
</g><g transform="translate(-100 27.418837999191783) rotate(0)">
  <animateTransform attributeName="transform" type="translate" keyTimes="0;1" values="-100 27.418837999191783;1536 27.418837999191783" dur="111.1111111111111s" repeatCount="indefinite" begin="-57.63261810382958s"></animateTransform>
  <path d="M84.717,33.597c0.791-2.503,1.186-5.138,1.186-7.773C85.903,11.594,74.308,0,60.079,0 c-9.881,0-18.445,5.534-22.793,13.702c-1.581-0.527-3.426-0.791-5.138-0.791c-9.486,0-17.128,7.642-17.128,17.128 c0,1.186,0.132,2.372,0.395,3.426C6.719,34.783,0,42.424,0,51.515C0,61.66,8.169,69.829,18.314,69.829h63.373 C91.831,69.829,100,61.66,100,51.515C99.868,42.556,93.281,35.046,84.717,33.597z" fill="rgba(255, 255, 255, 0.5)" transform="scale(0.5625)"></path>
</g><g transform="translate(-100 497.25416787108907) rotate(0)">
  <animateTransform attributeName="transform" type="translate" keyTimes="0;1" values="-100 497.25416787108907;1536 497.25416787108907" dur="111.1111111111111s" repeatCount="indefinite" begin="-150.35333901946282s"></animateTransform>
  <path d="M84.717,33.597c0.791-2.503,1.186-5.138,1.186-7.773C85.903,11.594,74.308,0,60.079,0 c-9.881,0-18.445,5.534-22.793,13.702c-1.581-0.527-3.426-0.791-5.138-0.791c-9.486,0-17.128,7.642-17.128,17.128 c0,1.186,0.132,2.372,0.395,3.426C6.719,34.783,0,42.424,0,51.515C0,61.66,8.169,69.829,18.314,69.829h63.373 C91.831,69.829,100,61.66,100,51.515C99.868,42.556,93.281,35.046,84.717,33.597z" fill="rgba(255, 255, 255, 0.5)" transform="scale(0.5625)"></path>
</g><g transform="translate(-100 293.7758969509951) rotate(0)">
  <animateTransform attributeName="transform" type="translate" keyTimes="0;1" values="-100 293.7758969509951;1536 293.7758969509951" dur="111.1111111111111s" repeatCount="indefinite" begin="-136.00041117744962s"></animateTransform>
  <path d="M84.717,33.597c0.791-2.503,1.186-5.138,1.186-7.773C85.903,11.594,74.308,0,60.079,0 c-9.881,0-18.445,5.534-22.793,13.702c-1.581-0.527-3.426-0.791-5.138-0.791c-9.486,0-17.128,7.642-17.128,17.128 c0,1.186,0.132,2.372,0.395,3.426C6.719,34.783,0,42.424,0,51.515C0,61.66,8.169,69.829,18.314,69.829h63.373 C91.831,69.829,100,61.66,100,51.515C99.868,42.556,93.281,35.046,84.717,33.597z" fill="rgba(255, 255, 255, 0.5)" transform="scale(0.5625)"></path>
</g><g transform="translate(-100 326.50615521362494) rotate(0)">
  <animateTransform attributeName="transform" type="translate" keyTimes="0;1" values="-100 326.50615521362494;1536 326.50615521362494" dur="111.1111111111111s" repeatCount="indefinite" begin="-254.4996764686505s"></animateTransform>
  <path d="M84.717,33.597c0.791-2.503,1.186-5.138,1.186-7.773C85.903,11.594,74.308,0,60.079,0 c-9.881,0-18.445,5.534-22.793,13.702c-1.581-0.527-3.426-0.791-5.138-0.791c-9.486,0-17.128,7.642-17.128,17.128 c0,1.186,0.132,2.372,0.395,3.426C6.719,34.783,0,42.424,0,51.515C0,61.66,8.169,69.829,18.314,69.829h63.373 C91.831,69.829,100,61.66,100,51.515C99.868,42.556,93.281,35.046,84.717,33.597z" fill="rgba(255, 255, 255, 0.5)" transform="scale(0.5625)"></path>
</g><g transform="translate(-100 338.7264580915901) rotate(0)">
  <animateTransform attributeName="transform" type="translate" keyTimes="0;1" values="-100 338.7264580915901;1536 338.7264580915901" dur="111.1111111111111s" repeatCount="indefinite" begin="-50.55063384999695s"></animateTransform>
  <path d="M84.717,33.597c0.791-2.503,1.186-5.138,1.186-7.773C85.903,11.594,74.308,0,60.079,0 c-9.881,0-18.445,5.534-22.793,13.702c-1.581-0.527-3.426-0.791-5.138-0.791c-9.486,0-17.128,7.642-17.128,17.128 c0,1.186,0.132,2.372,0.395,3.426C6.719,34.783,0,42.424,0,51.515C0,61.66,8.169,69.829,18.314,69.829h63.373 C91.831,69.829,100,61.66,100,51.515C99.868,42.556,93.281,35.046,84.717,33.597z" fill="rgba(255, 255, 255, 0.5)" transform="scale(0.5625)"></path>
</g><g transform="translate(-100 547.9349502877129) rotate(0)">
  <animateTransform attributeName="transform" type="translate" keyTimes="0;1" values="-100 547.9349502877129;1536 547.9349502877129" dur="111.1111111111111s" repeatCount="indefinite" begin="-25.956500047852327s"></animateTransform>
  <path d="M84.717,33.597c0.791-2.503,1.186-5.138,1.186-7.773C85.903,11.594,74.308,0,60.079,0 c-9.881,0-18.445,5.534-22.793,13.702c-1.581-0.527-3.426-0.791-5.138-0.791c-9.486,0-17.128,7.642-17.128,17.128 c0,1.186,0.132,2.372,0.395,3.426C6.719,34.783,0,42.424,0,51.515C0,61.66,8.169,69.829,18.314,69.829h63.373 C91.831,69.829,100,61.66,100,51.515C99.868,42.556,93.281,35.046,84.717,33.597z" fill="rgba(255, 255, 255, 0.5)" transform="scale(0.5625)"></path>
</g><g transform="translate(-100 160.39519112385872) rotate(0)">
  <animateTransform attributeName="transform" type="translate" keyTimes="0;1" values="-100 160.39519112385872;1536 160.39519112385872" dur="83.33333333333333s" repeatCount="indefinite" begin="-180.83410222745124s"></animateTransform>
  <path d="M84.717,33.597c0.791-2.503,1.186-5.138,1.186-7.773C85.903,11.594,74.308,0,60.079,0 c-9.881,0-18.445,5.534-22.793,13.702c-1.581-0.527-3.426-0.791-5.138-0.791c-9.486,0-17.128,7.642-17.128,17.128 c0,1.186,0.132,2.372,0.395,3.426C6.719,34.783,0,42.424,0,51.515C0,61.66,8.169,69.829,18.314,69.829h63.373 C91.831,69.829,100,61.66,100,51.515C99.868,42.556,93.281,35.046,84.717,33.597z" fill="rgba(0, 0, 0, 0.5)" transform="scale(0.6)"></path>
</g><g transform="translate(-100 115.70708963121268) rotate(0)">
  <animateTransform attributeName="transform" type="translate" keyTimes="0;1" values="-100 115.70708963121268;1536 115.70708963121268" dur="83.33333333333333s" repeatCount="indefinite" begin="-283.8633237949726s"></animateTransform>
  <path d="M84.717,33.597c0.791-2.503,1.186-5.138,1.186-7.773C85.903,11.594,74.308,0,60.079,0 c-9.881,0-18.445,5.534-22.793,13.702c-1.581-0.527-3.426-0.791-5.138-0.791c-9.486,0-17.128,7.642-17.128,17.128 c0,1.186,0.132,2.372,0.395,3.426C6.719,34.783,0,42.424,0,51.515C0,61.66,8.169,69.829,18.314,69.829h63.373 C91.831,69.829,100,61.66,100,51.515C99.868,42.556,93.281,35.046,84.717,33.597z" fill="rgba(0, 0, 0, 0.5)" transform="scale(0.6)"></path>
</g><g transform="translate(-100 96.7790635195272) rotate(0)">
  <animateTransform attributeName="transform" type="translate" keyTimes="0;1" values="-100 96.7790635195272;1536 96.7790635195272" dur="83.33333333333333s" repeatCount="indefinite" begin="-201.8222975156431s"></animateTransform>
  <path d="M84.717,33.597c0.791-2.503,1.186-5.138,1.186-7.773C85.903,11.594,74.308,0,60.079,0 c-9.881,0-18.445,5.534-22.793,13.702c-1.581-0.527-3.426-0.791-5.138-0.791c-9.486,0-17.128,7.642-17.128,17.128 c0,1.186,0.132,2.372,0.395,3.426C6.719,34.783,0,42.424,0,51.515C0,61.66,8.169,69.829,18.314,69.829h63.373 C91.831,69.829,100,61.66,100,51.515C99.868,42.556,93.281,35.046,84.717,33.597z" fill="rgba(0, 0, 0, 0.5)" transform="scale(0.6)"></path>
</g><g transform="translate(-100 706.69351331994) rotate(0)">
  <animateTransform attributeName="transform" type="translate" keyTimes="0;1" values="-100 706.69351331994;1536 706.69351331994" dur="83.33333333333333s" repeatCount="indefinite" begin="-150.87238717489336s"></animateTransform>
  <path d="M84.717,33.597c0.791-2.503,1.186-5.138,1.186-7.773C85.903,11.594,74.308,0,60.079,0 c-9.881,0-18.445,5.534-22.793,13.702c-1.581-0.527-3.426-0.791-5.138-0.791c-9.486,0-17.128,7.642-17.128,17.128 c0,1.186,0.132,2.372,0.395,3.426C6.719,34.783,0,42.424,0,51.515C0,61.66,8.169,69.829,18.314,69.829h63.373 C91.831,69.829,100,61.66,100,51.515C99.868,42.556,93.281,35.046,84.717,33.597z" fill="rgba(0, 0, 0, 0.5)" transform="scale(0.6)"></path>
</g><g transform="translate(-100 565.9350997051566) rotate(0)">
  <animateTransform attributeName="transform" type="translate" keyTimes="0;1" values="-100 565.9350997051566;1536 565.9350997051566" dur="83.33333333333333s" repeatCount="indefinite" begin="-190.37910134136848s"></animateTransform>
  <path d="M84.717,33.597c0.791-2.503,1.186-5.138,1.186-7.773C85.903,11.594,74.308,0,60.079,0 c-9.881,0-18.445,5.534-22.793,13.702c-1.581-0.527-3.426-0.791-5.138-0.791c-9.486,0-17.128,7.642-17.128,17.128 c0,1.186,0.132,2.372,0.395,3.426C6.719,34.783,0,42.424,0,51.515C0,61.66,8.169,69.829,18.314,69.829h63.373 C91.831,69.829,100,61.66,100,51.515C99.868,42.556,93.281,35.046,84.717,33.597z" fill="rgba(0, 0, 0, 0.5)" transform="scale(0.6)"></path>
</g><g transform="translate(-100 485.4589621783273) rotate(0)">
  <animateTransform attributeName="transform" type="translate" keyTimes="0;1" values="-100 485.4589621783273;1536 485.4589621783273" dur="83.33333333333333s" repeatCount="indefinite" begin="-178.4379140951365s"></animateTransform>
  <path d="M84.717,33.597c0.791-2.503,1.186-5.138,1.186-7.773C85.903,11.594,74.308,0,60.079,0 c-9.881,0-18.445,5.534-22.793,13.702c-1.581-0.527-3.426-0.791-5.138-0.791c-9.486,0-17.128,7.642-17.128,17.128 c0,1.186,0.132,2.372,0.395,3.426C6.719,34.783,0,42.424,0,51.515C0,61.66,8.169,69.829,18.314,69.829h63.373 C91.831,69.829,100,61.66,100,51.515C99.868,42.556,93.281,35.046,84.717,33.597z" fill="rgba(0, 0, 0, 0.5)" transform="scale(0.6)"></path>
</g><g transform="translate(-100 547.3098167714811) rotate(0)">
  <animateTransform attributeName="transform" type="translate" keyTimes="0;1" values="-100 547.3098167714811;1536 547.3098167714811" dur="83.33333333333333s" repeatCount="indefinite" begin="-37.80967306292796s"></animateTransform>
  <path d="M84.717,33.597c0.791-2.503,1.186-5.138,1.186-7.773C85.903,11.594,74.308,0,60.079,0 c-9.881,0-18.445,5.534-22.793,13.702c-1.581-0.527-3.426-0.791-5.138-0.791c-9.486,0-17.128,7.642-17.128,17.128 c0,1.186,0.132,2.372,0.395,3.426C6.719,34.783,0,42.424,0,51.515C0,61.66,8.169,69.829,18.314,69.829h63.373 C91.831,69.829,100,61.66,100,51.515C99.868,42.556,93.281,35.046,84.717,33.597z" fill="rgba(0, 0, 0, 0.5)" transform="scale(0.6)"></path>
</g><g transform="translate(-100 645.6943476917315) rotate(0)">
  <animateTransform attributeName="transform" type="translate" keyTimes="0;1" values="-100 645.6943476917315;1536 645.6943476917315" dur="83.33333333333333s" repeatCount="indefinite" begin="-151.75080372114013s"></animateTransform>
  <path d="M84.717,33.597c0.791-2.503,1.186-5.138,1.186-7.773C85.903,11.594,74.308,0,60.079,0 c-9.881,0-18.445,5.534-22.793,13.702c-1.581-0.527-3.426-0.791-5.138-0.791c-9.486,0-17.128,7.642-17.128,17.128 c0,1.186,0.132,2.372,0.395,3.426C6.719,34.783,0,42.424,0,51.515C0,61.66,8.169,69.829,18.314,69.829h63.373 C91.831,69.829,100,61.66,100,51.515C99.868,42.556,93.281,35.046,84.717,33.597z" fill="rgba(0, 0, 0, 0.5)" transform="scale(0.6)"></path>
</g><g transform="translate(-100 327.1710825193801) rotate(0)">
  <animateTransform attributeName="transform" type="translate" keyTimes="0;1" values="-100 327.1710825193801;1536 327.1710825193801" dur="83.33333333333333s" repeatCount="indefinite" begin="-221.15609211911794s"></animateTransform>
  <path d="M84.717,33.597c0.791-2.503,1.186-5.138,1.186-7.773C85.903,11.594,74.308,0,60.079,0 c-9.881,0-18.445,5.534-22.793,13.702c-1.581-0.527-3.426-0.791-5.138-0.791c-9.486,0-17.128,7.642-17.128,17.128 c0,1.186,0.132,2.372,0.395,3.426C6.719,34.783,0,42.424,0,51.515C0,61.66,8.169,69.829,18.314,69.829h63.373 C91.831,69.829,100,61.66,100,51.515C99.868,42.556,93.281,35.046,84.717,33.597z" fill="rgba(0, 0, 0, 0.5)" transform="scale(0.6)"></path>
</g><g transform="translate(-100 287.8024777726821) rotate(0)">
  <animateTransform attributeName="transform" type="translate" keyTimes="0;1" values="-100 287.8024777726821;1536 287.8024777726821" dur="83.33333333333333s" repeatCount="indefinite" begin="-51.43703926702647s"></animateTransform>
  <path d="M84.717,33.597c0.791-2.503,1.186-5.138,1.186-7.773C85.903,11.594,74.308,0,60.079,0 c-9.881,0-18.445,5.534-22.793,13.702c-1.581-0.527-3.426-0.791-5.138-0.791c-9.486,0-17.128,7.642-17.128,17.128 c0,1.186,0.132,2.372,0.395,3.426C6.719,34.783,0,42.424,0,51.515C0,61.66,8.169,69.829,18.314,69.829h63.373 C91.831,69.829,100,61.66,100,51.515C99.868,42.556,93.281,35.046,84.717,33.597z" fill="rgba(0, 0, 0, 0.5)" transform="scale(0.6)"></path>
</g><g transform="translate(-100 336.513800800725) rotate(0)">
  <animateTransform attributeName="transform" type="translate" keyTimes="0;1" values="-100 336.513800800725;1536 336.513800800725" dur="83.33333333333333s" repeatCount="indefinite" begin="-314.51652744290004s"></animateTransform>
  <path d="M84.717,33.597c0.791-2.503,1.186-5.138,1.186-7.773C85.903,11.594,74.308,0,60.079,0 c-9.881,0-18.445,5.534-22.793,13.702c-1.581-0.527-3.426-0.791-5.138-0.791c-9.486,0-17.128,7.642-17.128,17.128 c0,1.186,0.132,2.372,0.395,3.426C6.719,34.783,0,42.424,0,51.515C0,61.66,8.169,69.829,18.314,69.829h63.373 C91.831,69.829,100,61.66,100,51.515C99.868,42.556,93.281,35.046,84.717,33.597z" fill="rgba(0, 0, 0, 0.5)" transform="scale(0.6)"></path>
</g><g transform="translate(-100 280.85861241599395) rotate(0)">
  <animateTransform attributeName="transform" type="translate" keyTimes="0;1" values="-100 280.85861241599395;1536 280.85861241599395" dur="83.33333333333333s" repeatCount="indefinite" begin="-73.74681122853073s"></animateTransform>
  <path d="M84.717,33.597c0.791-2.503,1.186-5.138,1.186-7.773C85.903,11.594,74.308,0,60.079,0 c-9.881,0-18.445,5.534-22.793,13.702c-1.581-0.527-3.426-0.791-5.138-0.791c-9.486,0-17.128,7.642-17.128,17.128 c0,1.186,0.132,2.372,0.395,3.426C6.719,34.783,0,42.424,0,51.515C0,61.66,8.169,69.829,18.314,69.829h63.373 C91.831,69.829,100,61.66,100,51.515C99.868,42.556,93.281,35.046,84.717,33.597z" fill="rgba(0, 0, 0, 0.5)" transform="scale(0.6)"></path>
</g></g>
</svg>