<?xml version="1.0" encoding="utf-8"?>
<svg xmlns="http://www.w3.org/2000/svg" xmlns:xlink="http://www.w3.org/1999/xlink" style="margin: auto; background: none; display: block; z-index: 1; position: relative; shape-rendering: auto;" preserveAspectRatio="xMidYMid" viewBox="0 0 1530 720">
<g transform="translate(765,360) scale(1,1) translate(-765,-360)"><defs>
  <path id="path-sncay14401-1" d="M-35 -35L35 -35L35 35L-35 35Z" fill="none" stroke="inherit" stroke-width="6.734693877551021" transform="scale(0.49)"></path>
  <path id="path-sncay14401-2" d="M0 -37A37 37 0 0 1 0 37A37 37 0 0 1 0 -37" fill="none" stroke="inherit" stroke-width="6.734693877551021" transform="scale(0.49)"></path>
  <path id="path-sncay14401-3" d="M0 -34.641L40 34.641L-40 34.641Z" fill="none" stroke="inherit" stroke-width="6.734693877551021" transform="scale(0.49)"></path>
</defs><path id="path0" d="M 112.28526615559903 624.0192655558753
c 0 61.799659238052165 -15.121193217821272 17.75096595135541 -32.87215916917668 17.75096595135541
S 46.540947817245666 685.8189247939275 46.540947817245666 624.0192655558753
s 15.121193217821272 -17.75096595135541 32.87215916917668 -17.75096595135541
S 112.28526615559903 562.2196063178231 112.28526615559903 624.0192655558753
z" fill="none" stroke="none"></path>
<use xlink:href="#path-sncay14401-3" x="0" y="0" stroke="#bbddff">
  <animateMotion begin="-13.222145460752925s" dur="41.666666666666664s" keyPoints="1;0" keyTimes="0;1" repeatCount="indefinite" calcMode="linear">
    <mpath xlink:href="#path0"></mpath>
  </animateMotion>
</use><path id="path1" d="M 135.37953358842893 206.0898102104363
c 0 47.86543848398194 -11.711756224804091 13.748583394335238 -25.46033961913933 13.748583394335238
S 84.45885435015028 253.95524869441823 84.45885435015028 206.0898102104363
s 11.711756224804091 -13.748583394335238 25.46033961913933 -13.748583394335238
S 135.37953358842893 158.22437172645436 135.37953358842893 206.0898102104363
z" fill="none" stroke="none"></path>
<use xlink:href="#path-sncay14401-1" x="0" y="0" stroke="#aabbcc">
  <animateMotion begin="-2.537015063660423s" dur="41.666666666666664s" keyPoints="0;1" keyTimes="0;1" repeatCount="indefinite" calcMode="linear">
    <mpath xlink:href="#path1"></mpath>
  </animateMotion>
</use><path id="path2" d="M 241.7389497876917 608.4323808732179
c 0 26.38598500253441 -6.456145266577568 7.578953139025842 -14.03509840560341 7.578953139025842
S 213.66875297648488 634.8183658757523 213.66875297648488 608.4323808732179
s 6.456145266577568 -7.578953139025842 14.03509840560341 -7.578953139025842
S 241.7389497876917 582.0463958706835 241.7389497876917 608.4323808732179
z" fill="none" stroke="none"></path>
<use xlink:href="#path-sncay14401-2" x="0" y="0" stroke="#aabbcc">
  <animateMotion begin="-30.34126859976486s" dur="41.666666666666664s" keyPoints="0;1" keyTimes="0;1" repeatCount="indefinite" calcMode="linear">
    <mpath xlink:href="#path2"></mpath>
  </animateMotion>
</use><path id="path3" d="M 243.05248409838637 589.0058371709938
c 0 34.03463155725416 -8.327622615072826 9.775904808998536 -18.103527424071363 9.775904808998536
S 206.84542925024365 623.040468728248 206.84542925024365 589.0058371709938
s 8.327622615072826 -9.775904808998536 18.103527424071363 -9.775904808998536
S 243.05248409838637 554.9712056137396 243.05248409838637 589.0058371709938
z" fill="none" stroke="none"></path>
<use xlink:href="#path-sncay14401-1" x="0" y="0" stroke="#ddeeff">
  <animateMotion begin="-33.77851733207999s" dur="41.666666666666664s" keyPoints="1;0" keyTimes="0;1" repeatCount="indefinite" calcMode="linear">
    <mpath xlink:href="#path3"></mpath>
  </animateMotion>
</use><path id="path4" d="M 349.5763138262602 513.2733724698463
c 0 24.52957959062651 -6.0019184104724435 7.045730307945913 -13.047648718418356 7.045730307945913
S 323.4810163894235 537.8029520604729 323.4810163894235 513.2733724698463
s 6.0019184104724435 -7.045730307945913 13.047648718418356 -7.045730307945913
S 349.5763138262602 488.7437928792198 349.5763138262602 513.2733724698463
z" fill="none" stroke="none"></path>
<use xlink:href="#path-sncay14401-3" x="0" y="0" stroke="#ddeeff">
  <animateMotion begin="-1.4535959051279652s" dur="41.666666666666664s" keyPoints="0;1" keyTimes="0;1" repeatCount="indefinite" calcMode="linear">
    <mpath xlink:href="#path4"></mpath>
  </animateMotion>
</use><path id="path5" d="M 398.6386225953634 631.2058588223947
c 0 30.244373642897575 -7.40021908283664 8.687213705938666 -16.087432788775303 8.687213705938666
S 366.46375701781284 661.4502324652923 366.46375701781284 631.2058588223947
s 7.40021908283664 -8.687213705938666 16.087432788775303 -8.687213705938666
S 398.6386225953634 600.9614851794971 398.6386225953634 631.2058588223947
z" fill="none" stroke="none"></path>
<use xlink:href="#path-sncay14401-2" x="0" y="0" stroke="#aabbcc">
  <animateMotion begin="-22.257614928250742s" dur="41.666666666666664s" keyPoints="0;1" keyTimes="0;1" repeatCount="indefinite" calcMode="linear">
    <mpath xlink:href="#path5"></mpath>
  </animateMotion>
</use><path id="path6" d="M 473.1776527779317 196.10429564836897
c 0 41.94563736246383 -10.263294248262426 12.048214987090674 -22.3115092353531 12.048214987090674
S 428.55463430722557 238.0499330108328 428.55463430722557 196.10429564836897
s 10.263294248262426 -12.048214987090674 22.3115092353531 -12.048214987090674
S 473.1776527779317 154.15865828590515 473.1776527779317 196.10429564836897
z" fill="none" stroke="none"></path>
<use xlink:href="#path-sncay14401-2" x="0" y="0" stroke="#ddeeff">
  <animateMotion begin="-24.982194088252196s" dur="41.666666666666664s" keyPoints="1;0" keyTimes="0;1" repeatCount="indefinite" calcMode="linear">
    <mpath xlink:href="#path6"></mpath>
  </animateMotion>
</use><path id="path7" d="M 545.9429345036417 174.28318606735903
c 0 36.74389628829258 -8.990527815220524 10.554097870041486 -19.54462568526201 10.554097870041486
S 506.8536831331177 211.0270823556516 506.8536831331177 174.28318606735903
s 8.990527815220524 -10.554097870041486 19.54462568526201 -10.554097870041486
S 545.9429345036417 137.53928977906645 545.9429345036417 174.28318606735903
z" fill="none" stroke="none"></path>
<use xlink:href="#path-sncay14401-1" x="0" y="0" stroke="#bbddff">
  <animateMotion begin="-40.86855645122121s" dur="41.666666666666664s" keyPoints="0;1" keyTimes="0;1" repeatCount="indefinite" calcMode="linear">
    <mpath xlink:href="#path7"></mpath>
  </animateMotion>
</use><path id="path8" d="M 575.2262005018496 73.53926583547764
c 0 62.40535218630217 -15.269394683882444 17.92494158542722 -33.194336269309666 17.92494158542722
S 508.83752796323023 135.9446180217798 508.83752796323023 73.53926583547764
s 15.269394683882444 -17.92494158542722 33.194336269309666 -17.92494158542722
S 575.2262005018496 11.133913649175469 575.2262005018496 73.53926583547764
z" fill="none" stroke="none"></path>
<use xlink:href="#path-sncay14401-2" x="0" y="0" stroke="#aabbcc">
  <animateMotion begin="-23.567721972683298s" dur="41.666666666666664s" keyPoints="0;1" keyTimes="0;1" repeatCount="indefinite" calcMode="linear">
    <mpath xlink:href="#path8"></mpath>
  </animateMotion>
</use><path id="path9" d="M 624.0161828918091 120.18679414645098
c 0 28.724170235649495 -7.028254419361047 8.250559535771664 -15.27881395513271 8.250559535771664
S 593.4585549815437 148.91096438210047 593.4585549815437 120.18679414645098
s 7.028254419361047 -8.250559535771664 15.27881395513271 -8.250559535771664
S 624.0161828918091 91.46262391080148 624.0161828918091 120.18679414645098
z" fill="none" stroke="none"></path>
<use xlink:href="#path-sncay14401-3" x="0" y="0" stroke="#bbddff">
  <animateMotion begin="-5.980869366613184s" dur="41.666666666666664s" keyPoints="1;0" keyTimes="0;1" repeatCount="indefinite" calcMode="linear">
    <mpath xlink:href="#path9"></mpath>
  </animateMotion>
</use><path id="path10" d="M 739.7239187512113 93.22022800025432
c 0 54.60337220531951 -13.360399582152645 15.683947335570497 -29.044346917723143 15.683947335570497
S 681.635224915765 147.82360020557383 681.635224915765 93.22022800025432
s 13.360399582152645 -15.683947335570497 29.044346917723143 -15.683947335570497
S 739.7239187512113 38.616855794934814 739.7239187512113 93.22022800025432
z" fill="none" stroke="none"></path>
<use xlink:href="#path-sncay14401-3" x="0" y="0" stroke="#ddeeff">
  <animateMotion begin="-22.073408255944447s" dur="41.666666666666664s" keyPoints="1;0" keyTimes="0;1" repeatCount="indefinite" calcMode="linear">
    <mpath xlink:href="#path10"></mpath>
  </animateMotion>
</use><path id="path11" d="M 815.8236017224601 595.5538671595309
c 0 47.45441268698444 -11.611186082985553 13.630522793069998 -25.24170887605555 13.630522793069998
S 765.340183970349 643.0082798465154 765.340183970349 595.5538671595309
s 11.611186082985553 -13.630522793069998 25.24170887605555 -13.630522793069998
S 815.8236017224601 548.0994544725464 815.8236017224601 595.5538671595309
z" fill="none" stroke="none"></path>
<use xlink:href="#path-sncay14401-1" x="0" y="0" stroke="#aabbcc">
  <animateMotion begin="-22.141688483617454s" dur="41.666666666666664s" keyPoints="1;0" keyTimes="0;1" repeatCount="indefinite" calcMode="linear">
    <mpath xlink:href="#path11"></mpath>
  </animateMotion>
</use><path id="path12" d="M 881.1651167925891 73.63758976757927
c 0 39.58635215152477 -9.686022334947548 11.37054795841669 -21.05657029336424 11.37054795841669
S 839.0519762058607 113.22394191910405 839.0519762058607 73.63758976757927
s 9.686022334947548 -11.37054795841669 21.05657029336424 -11.37054795841669
S 881.1651167925891 34.0512376160545 881.1651167925891 73.63758976757927
z" fill="none" stroke="none"></path>
<use xlink:href="#path-sncay14401-2" x="0" y="0" stroke="#bbddff">
  <animateMotion begin="-12.858235971788636s" dur="41.666666666666664s" keyPoints="1;0" keyTimes="0;1" repeatCount="indefinite" calcMode="linear">
    <mpath xlink:href="#path12"></mpath>
  </animateMotion>
</use><path id="path13" d="M 919.2739656840732 399.9332045095785
c 0 28.756102040842734 -7.036067520631732 8.259731437263339 -15.29579895789507 8.259731437263339
S 888.6823677682831 428.68930655042124 888.6823677682831 399.9332045095785
s 7.036067520631732 -8.259731437263339 15.29579895789507 -8.259731437263339
S 919.2739656840732 371.17710246873577 919.2739656840732 399.9332045095785
z" fill="none" stroke="none"></path>
<use xlink:href="#path-sncay14401-2" x="0" y="0" stroke="#aabbcc">
  <animateMotion begin="-31.211519028320623s" dur="41.666666666666664s" keyPoints="1;0" keyTimes="0;1" repeatCount="indefinite" calcMode="linear">
    <mpath xlink:href="#path13"></mpath>
  </animateMotion>
</use><path id="path14" d="M 965.2062022166741 103.62418219130356
c 0 26.0720122007592 -6.379322134228315 7.488769461920196 -13.86809159614851 7.488769461920196
S 937.4700190243772 129.69619439206275 937.4700190243772 103.62418219130356
s 6.379322134228315 -7.488769461920196 13.86809159614851 -7.488769461920196
S 965.2062022166741 77.55216999054436 965.2062022166741 103.62418219130356
z" fill="none" stroke="none"></path>
<use xlink:href="#path-sncay14401-1" x="0" y="0" stroke="#bbddff">
  <animateMotion begin="-25.117523469725576s" dur="41.666666666666664s" keyPoints="1;0" keyTimes="0;1" repeatCount="indefinite" calcMode="linear">
    <mpath xlink:href="#path14"></mpath>
  </animateMotion>
</use><path id="path15" d="M 1036.436683110038 83.4471037007357
c 0 36.58236055869857 -8.951003115426245 10.50769930941342 -19.458702424839665 10.50769930941342
S 997.5192782603586 120.02946425943426 997.5192782603586 83.4471037007357
s 8.951003115426245 -10.50769930941342 19.458702424839665 -10.50769930941342
S 1036.436683110038 46.86474314203713 1036.436683110038 83.4471037007357
z" fill="none" stroke="none"></path>
<use xlink:href="#path-sncay14401-3" x="0" y="0" stroke="#ddeeff">
  <animateMotion begin="-30.961631768931507s" dur="41.666666666666664s" keyPoints="1;0" keyTimes="0;1" repeatCount="indefinite" calcMode="linear">
    <mpath xlink:href="#path15"></mpath>
  </animateMotion>
</use><path id="path16" d="M 1087.2025336884342 195.26822374554297
c 0 53.110999316306774 -12.99524451356442 15.255287037662583 -28.250531551227006 15.255287037662583
S 1030.7014705859804 248.37922306184976 1030.7014705859804 195.26822374554297
s 12.99524451356442 -15.255287037662583 28.250531551227006 -15.255287037662583
S 1087.2025336884342 142.15722442923618 1087.2025336884342 195.26822374554297
z" fill="none" stroke="none"></path>
<use xlink:href="#path-sncay14401-3" x="0" y="0" stroke="#bbddff">
  <animateMotion begin="-11.200521325029271s" dur="41.666666666666664s" keyPoints="0;1" keyTimes="0;1" repeatCount="indefinite" calcMode="linear">
    <mpath xlink:href="#path16"></mpath>
  </animateMotion>
</use><path id="path17" d="M 1183.8768340828044 153.6546732452785
c 0 52.27154451684008 -12.789845998801296 15.014167042071088 -27.804013040872384 15.014167042071088
S 1128.2688080010596 205.9262177621186 1128.2688080010596 153.6546732452785
s 12.789845998801296 -15.014167042071088 27.804013040872384 -15.014167042071088
S 1183.8768340828044 101.38312872843842 1183.8768340828044 153.6546732452785
z" fill="none" stroke="none"></path>
<use xlink:href="#path-sncay14401-2" x="0" y="0" stroke="#ddeeff">
  <animateMotion begin="-35.780898512435506s" dur="41.666666666666664s" keyPoints="0;1" keyTimes="0;1" repeatCount="indefinite" calcMode="linear">
    <mpath xlink:href="#path17"></mpath>
  </animateMotion>
</use><path id="path18" d="M 1213.8258691574058 464.5279256195863
c 0 20.07959529240353 -4.913092465162564 5.767543328669099 -10.680635793831662 5.767543328669099
S 1192.4645975697424 484.60752091198987 1192.4645975697424 464.5279256195863
s 4.913092465162564 -5.767543328669099 10.680635793831662 -5.767543328669099
S 1213.8258691574058 444.44833032718276 1213.8258691574058 464.5279256195863
z" fill="none" stroke="none"></path>
<use xlink:href="#path-sncay14401-2" x="0" y="0" stroke="#bbddff">
  <animateMotion begin="-5.900473254742457s" dur="41.666666666666664s" keyPoints="0;1" keyTimes="0;1" repeatCount="indefinite" calcMode="linear">
    <mpath xlink:href="#path18"></mpath>
  </animateMotion>
</use><path id="path19" d="M 1284.749156818337 217.24566448003506
c 0 19.546203889744746 -4.782581802809884 5.614335159820299 -10.396916962630183 5.614335159820299
S 1263.9553228930765 236.79186836977982 1263.9553228930765 217.24566448003506
s 4.782581802809884 -5.614335159820299 10.396916962630183 -5.614335159820299
S 1284.749156818337 197.6994605902903 1284.749156818337 217.24566448003506
z" fill="none" stroke="none"></path>
<use xlink:href="#path-sncay14401-1" x="0" y="0" stroke="#bbddff">
  <animateMotion begin="-14.437608905703613s" dur="41.666666666666664s" keyPoints="0;1" keyTimes="0;1" repeatCount="indefinite" calcMode="linear">
    <mpath xlink:href="#path19"></mpath>
  </animateMotion>
</use><path id="path20" d="M 1346.4925127830334 341.03760270167135
c 0 48.504948692464374 -11.86823212687958 13.932272496771683 -25.80050462365126 13.932272496771683
S 1294.8915035357309 389.5425513941357 1294.8915035357309 341.03760270167135
s 11.86823212687958 -13.932272496771683 25.80050462365126 -13.932272496771683
S 1346.4925127830334 292.53265400920696 1346.4925127830334 341.03760270167135
z" fill="none" stroke="none"></path>
<use xlink:href="#path-sncay14401-1" x="0" y="0" stroke="#ddeeff">
  <animateMotion begin="-0.2274119707815399s" dur="41.666666666666664s" keyPoints="1;0" keyTimes="0;1" repeatCount="indefinite" calcMode="linear">
    <mpath xlink:href="#path20"></mpath>
  </animateMotion>
</use><path id="path21" d="M 1390.1204894488985 536.1252590101302
c 0 25.21682177081972 -6.1700734120090805 7.243129657575878 -13.413203069584958 7.243129657575878
S 1363.2940833097284 561.3420807809499 1363.2940833097284 536.1252590101302
s 6.1700734120090805 -7.243129657575878 13.413203069584958 -7.243129657575878
S 1390.1204894488985 510.9084372393105 1390.1204894488985 536.1252590101302
z" fill="none" stroke="none"></path>
<use xlink:href="#path-sncay14401-1" x="0" y="0" stroke="#ddeeff">
  <animateMotion begin="-36.49331132148885s" dur="41.666666666666664s" keyPoints="1;0" keyTimes="0;1" repeatCount="indefinite" calcMode="linear">
    <mpath xlink:href="#path21"></mpath>
  </animateMotion>
</use><path id="path22" d="M 1478.1243281098014 323.2183550536527
c 0 53.62072474560947 -13.119964565415081 15.401697533313358 -28.52166209872844 15.401697533313358
S 1421.0810039123444 376.8390797992622 1421.0810039123444 323.2183550536527
s 13.119964565415081 -15.401697533313358 28.52166209872844 -15.401697533313358
S 1478.1243281098014 269.5976303080432 1478.1243281098014 323.2183550536527
z" fill="none" stroke="none"></path>
<use xlink:href="#path-sncay14401-2" x="0" y="0" stroke="#ddeeff">
  <animateMotion begin="-9.900750079436184s" dur="41.666666666666664s" keyPoints="0;1" keyTimes="0;1" repeatCount="indefinite" calcMode="linear">
    <mpath xlink:href="#path22"></mpath>
  </animateMotion>
</use></g>
</svg>